<svg width="684" height="684" viewBox="0 0 684 684" fill="none" xmlns="http://www.w3.org/2000/svg">
<mask id="mask0_302_18994" style="mask-type:alpha" maskUnits="userSpaceOnUse" x="0" y="0" width="684" height="684">
<rect x="0.666687" y="0.666672" width="682.667" height="682.667" fill="#D9D9D9"/>
</mask>
<g mask="url(#mask0_302_18994)">
<path d="M256.667 598C225.378 598 198.593 586.859 176.311 564.578C154.03 542.296 142.889 515.511 142.889 484.222V251.689C126.296 245.526 112.667 235.215 102 220.756C91.3333 206.296 86 189.822 86 171.333C86 147.63 94.2963 127.481 110.889 110.889C127.481 94.2963 147.63 86 171.333 86C195.037 86 215.185 94.2963 231.778 110.889C248.37 127.481 256.667 147.63 256.667 171.333C256.667 189.822 251.333 206.296 240.667 220.756C230 235.215 216.37 245.526 199.778 251.689V484.222C199.778 499.867 205.348 513.259 216.489 524.4C227.63 535.541 241.022 541.111 256.667 541.111C272.311 541.111 285.704 535.541 296.844 524.4C307.985 513.259 313.556 499.867 313.556 484.222V199.778C313.556 168.489 324.696 141.704 346.978 119.422C369.259 97.1407 396.044 86 427.333 86C458.622 86 485.407 97.1407 507.689 119.422C529.97 141.704 541.111 168.489 541.111 199.778V432.311C557.704 438.474 571.333 448.785 582 463.244C592.667 477.704 598 494.178 598 512.667C598 536.37 589.704 556.519 573.111 573.111C556.519 589.704 536.37 598 512.667 598C488.963 598 468.815 589.704 452.222 573.111C435.63 556.519 427.333 536.37 427.333 512.667C427.333 494.178 432.667 477.585 443.333 462.889C454 448.193 467.63 438 484.222 432.311V199.778C484.222 184.133 478.652 170.741 467.511 159.6C456.37 148.459 442.978 142.889 427.333 142.889C411.689 142.889 398.296 148.459 387.156 159.6C376.015 170.741 370.444 184.133 370.444 199.778V484.222C370.444 515.511 359.304 542.296 337.022 564.578C314.741 586.859 287.956 598 256.667 598ZM171.333 199.778C179.393 199.778 186.148 197.052 191.6 191.6C197.052 186.148 199.778 179.393 199.778 171.333C199.778 163.274 197.052 156.519 191.6 151.067C186.148 145.615 179.393 142.889 171.333 142.889C163.274 142.889 156.519 145.615 151.067 151.067C145.615 156.519 142.889 163.274 142.889 171.333C142.889 179.393 145.615 186.148 151.067 191.6C156.519 197.052 163.274 199.778 171.333 199.778ZM512.667 541.111C520.726 541.111 527.482 538.385 532.933 532.933C538.385 527.482 541.111 520.726 541.111 512.667C541.111 504.607 538.385 497.852 532.933 492.4C527.482 486.948 520.726 484.222 512.667 484.222C504.607 484.222 497.852 486.948 492.4 492.4C486.948 497.852 484.222 504.607 484.222 512.667C484.222 520.726 486.948 527.482 492.4 532.933C497.852 538.385 504.607 541.111 512.667 541.111Z" fill="#F8F8F8"/>
</g>
</svg>
